# xmcd
#
# Track frame offsets:
#	150
#	17945
#	31342
#	45537
#	57622
#	70850
#	81947
#	93212
#	115525
#	134465
#	150635
#	169055
#	187507
#	200480
#	219422
#	236100
#	250465
#	262472
#	278277
#
# Disc length: 3894 seconds
#
# Revision: 2
# Processed by: cddbd v1.5.2PL0 Copyright (c) Steve Scherf et al.
# Submitted via: EasyCDDAExtractor 7.0.3.1
#
DISCID=0a0f3413
DTITLE=Various Artist - Cajun Music: the Essential Collection
DYEAR=2003
DGENRE=Blues
TTITLE0=Bruce Daigrepont - La Jalouserie (Jealousy)
TTITLE1=Jo-El Sonnier - Evangeline Special
TTITLE2=Eddie Lejeune - Les Conseils J'ai Ecoute ( the Advice I Took)
TTITLE3=Charivari - La Femme Que J'ai Jamis Oubliee (The Woman I Never Forgot)
TTITLE4=D.L. Menard - Elle Savait Pas J'etais Marie (She Didn't Know I Was Married)
TTITLE5=Jimmy C. Newman and Cajun Country - La Porte D'en Arriere (The Back Door)
TTITLE6=Mamou - Opelousas Sostan
TTITLE7=Bluerunners, (The) - Au Bout De Chemin (At the End of the Road)
TTITLE8=Jo-El Sonnier - Pine Grove Blues
TTITLE9=Beausoleil - Madame Bozo
TTITLE10=Al Benard and Basin Brothers - Dans La Louisiane (In Louisiana)
TTITLE11=Coteau - Grand Mamou
TTITLE12=Magnolia Sisters - La Fleur De La Jeunesse (The Flower of Youth)
TTITLE13=Courtney Granger - Les Barres De La Prison (The Prison Bars)
TTITLE14=Balfa Toujours - J'ai Vu Le Loup, Le Renard Et La Belette (I Saw the Wolf, the Fox and the Weasel)
TTITLE15=Zachary Richard - Jolie Blon (Pretty Blonde)
TTITLE16=Danny Collet - J'menui De Toi (I'm Lonesome for You)
TTITLE17=Steve Riley and Mamou Playboys - Tes Parents Veulent Plus Me Voir (Your Parents Don't Want to See Me)
TTITLE18=Geno Delafose - Valse De Opelousas (Opelousas Waltz)
EXTD=YEAR: 2003\n
EXTT0=
EXTT1=
EXTT2=
EXTT3=
EXTT4=
EXTT5=
EXTT6=
EXTT7=
EXTT8=
EXTT9=
EXTT10=
EXTT11=
EXTT12=
EXTT13=
EXTT14=
EXTT15=
EXTT16=
EXTT17=
EXTT18=
PLAYORDER=
